
<svg version="1.2" xmlns="http://www.w3.org/2000/svg" viewBox="0 0 291 302" width="291" height="302">
	<title>4841277-ai</title>
	<defs>
		<linearGradient id="g1" x2="1" gradientUnits="userSpaceOnUse" gradientTransform="matrix(81.307,259.787,-139.546,43.675,395.683,-91.134)">
			<stop offset="0" stop-color="#ffd025"/>
			<stop offset="1" stop-color="#ff484b"/>
		</linearGradient>
		<linearGradient id="g2" x2="1" gradientUnits="userSpaceOnUse" gradientTransform="matrix(40.893,130.659,-168.067,52.601,128.736,-15.056)">
			<stop offset="0" stop-color="#ffd025"/>
			<stop offset="1" stop-color="#ff484b"/>
		</linearGradient>
		<linearGradient id="g3" x2="1" gradientUnits="userSpaceOnUse" gradientTransform="matrix(41.453,132.447,-52.995,16.586,225.546,104.478)">
			<stop offset="0" stop-color="#ffd025"/>
			<stop offset="1" stop-color="#ff484b"/>
		</linearGradient>
		<linearGradient id="g4" x2="1" gradientUnits="userSpaceOnUse" gradientTransform="matrix(-81.307,-259.787,139.546,-43.675,-106.683,390.605)">
			<stop offset="0" stop-color="#ffd025"/>
			<stop offset="1" stop-color="#ff484b"/>
		</linearGradient>
		<linearGradient id="g5" x2="1" gradientUnits="userSpaceOnUse" gradientTransform="matrix(-40.893,-130.659,168.067,-52.601,160.264,314.527)">
			<stop offset="0" stop-color="#ffd025"/>
			<stop offset="1" stop-color="#ff484b"/>
		</linearGradient>
		<linearGradient id="g6" x2="1" gradientUnits="userSpaceOnUse" gradientTransform="matrix(-41.453,-132.447,52.995,-16.586,63.454,194.994)">
			<stop offset="0" stop-color="#ffd025"/>
			<stop offset="1" stop-color="#ff484b"/>
		</linearGradient>
	</defs>
	<style>
		tspan { white-space:pre } 
		.s0 { fill: url(#g1) } 
		.s1 { fill: url(#g2) } 
		.s2 { fill: url(#g3) } 
		.s3 { fill: url(#g4) } 
		.s4 { fill: url(#g5) } 
		.s5 { fill: url(#g6) } 
	</style>
	<g id="OBJECTS">
		<g id="&lt;Group&gt;">
			<text id="" style="transform: matrix(2,0,0,2,273,201.656)" >
			</text>
			<g id="&lt;Group&gt;">
				<g id="&lt;Group&gt;">
				</g>
				<g id="&lt;Group&gt; copy">
				</g>
				<g id="&lt;Group&gt; copy 2">
				</g>
				<g id="&lt;Group&gt; copy 3">
				</g>
				<g id="&lt;Group&gt; copy 4">
				</g>
				<g id="&lt;Group&gt; copy 5">
				</g>
				<g id="&lt;Group&gt; copy 9">
				</g>
				<g id="&lt;Group&gt; copy 11">
				</g>
				<g id="&lt;Group&gt; copy 12">
					<path id="&lt;Compound Path&gt;" class="s0" d="m87.4 138.2q5.1-8.3 5.1-24.4v-37.3q0-10.2 5.2-15.6 5.3-5.5 15.8-5.5h4.1v-42.3h-19q-30.4 0-46 14.8-15.6 14.7-15.6 42.1v45.3q0 6.7-3.3 9.9-3.4 3.2-9.2 3.2h-10v42.7h10q5.8 0 9.2 3.1 3.3 3.3 3.3 10v45.2q0 27.5 15.6 42.2 15.6 14.7 46 14.7h19v-42.3h-4.1q-10.5 0-15.8-5.4-5.2-5.4-5.2-15.6v-37.4q0-16-5.1-24.3-5.2-8.4-16.8-11.6 11.6-3.2 16.8-11.5z"/>
					<path id="&lt;Path&gt;" class="s1" d="m117.6 13.1c0 0-45.8 14.8-45.8 53.2 0 38.4-10 85.1-57.3 62.1h10q5.8 0 9.2-3.2 3.3-3.2 3.3-9.9v-45.3q0-27.4 15.6-42.1 15.6-14.8 46-14.8z"/>
					<path id="&lt;Path&gt;" class="s2" d="m117.6 244v42.3c-61.7-2.6-72.1-53.5-51.6-80.5 20.6-27.1 4.6-56.1 4.6-56.1q11.6 3.2 16.8 11.6 5.1 8.3 5.1 24.3v37.4q0 10.2 5.2 15.6 5.3 5.4 15.8 5.4z"/>
				</g>
				<g id="&lt;Group&gt;">
					<path id="&lt;Compound Path&gt;" class="s3" d="m201.6 161.3q-5.1 8.3-5.1 24.3v37.4q0 10.2-5.2 15.6-5.3 5.4-15.8 5.4h-4.1v42.3h19q30.4 0 46-14.7 15.6-14.7 15.6-42.2v-45.2q0-6.7 3.3-9.9 3.4-3.2 9.2-3.2h10v-42.7h-10q-5.8 0-9.2-3.2-3.3-3.2-3.3-9.9v-45.2q0-27.5-15.6-42.2-15.6-14.8-46-14.8h-19v42.3h4.1q10.5 0 15.8 5.5 5.2 5.3 5.2 15.6v37.3q0 16.1 5.1 24.4 5.2 8.3 16.8 11.5-11.6 3.2-16.8 11.6z"/>
					<path id="&lt;Path&gt;" class="s4" d="m171.4 286.3c0 0 45.8-14.7 45.8-53.2 0-38.4 10-85 57.3-62h-10q-5.8 0-9.2 3.2-3.3 3.2-3.3 9.9v45.2q0 27.5-15.6 42.2-15.6 14.7-46 14.7z"/>
					<path id="&lt;Path&gt;" class="s5" d="m171.4 55.4v-42.3c61.7 2.7 72.1 53.6 51.6 80.6-20.6 27-4.6 56-4.6 56q-11.6-3.2-16.8-11.5-5.1-8.3-5.1-24.4v-37.3q0-10.3-5.2-15.6-5.3-5.5-15.8-5.5z"/>
				</g>
				<g id="&lt;Group&gt;">
					<g id="&lt;Group&gt;">
					</g>
					<g id="&lt;Group&gt;">
					</g>
				</g>
			</g>
		</g>
	</g>
</svg>